<?xml version="1.0" encoding="UTF-8"?>
<svg id="Layer_2" data-name="Layer 2" xmlns="http://www.w3.org/2000/svg" viewBox="0 0 194.07 259.85">
  <g id="Layer_1-2" data-name="Layer 1">
    <g>
      <path fill="#f7941d" d="M48.85,2.87C110,110.49-19.13,115.43,2.46,199.52c34.06,107.91,231.13,60.31,184.52-58.02-54.06,77.88,12.96-54.25-35.55-70C124.21,155.2,141.93-24.53,48.85,2.87"/>
      <path fill="#fbb040" d="M118.42,140.21c137.46,94.25-93.85,166.72-90.97,50.81,1.62-17.15,11.62-33.68,26.9-41.62,3.73,3.14,4.62,14.18,11.52,11.27,7.18-17.69,15.67-44.26,40.05-41.23-6.68,9,4.83,17.43,12.5,20.76Z"/>
      <path fill="#fbb040" d="M138.77,196.5c3.22,0,3.22-5,0-5s-3.22,5,0,5h0Z"/>
    </g>
  </g>
</svg>
