<svg width="399" height="512" viewBox="0 0 399 512" fill="none" xmlns="http://www.w3.org/2000/svg">
<g clip-path="url(#clip0_427_457)">
<path d="M198.21 6.45003C201.9 5.80003 241.02 28.81 249.69 32.66C293.57 52.15 342.39 57.99 389.89 57.23H391.25C386.6 178.85 415.7 310.5 331.12 412.89C308 440.87 281.33 458.82 250.86 477.7C242.58 482.83 205.03 506.47 198.21 505.54C185.52 503.82 106.58 450.47 94.09 439.32C-3.42 352.32 5.64001 228.31 7.51001 109.87C7.63001 101.98 6.95001 60.39 11.76 57.43C77.94 59.2 142.48 43.25 198.21 6.45003Z" fill="white" stroke="black" stroke-width="12.87" stroke-linecap="round" stroke-linejoin="round"/>
<path d="M198.21 465.53L199.38 45.5303C246.78 74.8903 300.76 88.4103 356.15 92.9103C351.68 179.06 370.84 276.42 328.07 354.97C299.3 407.8 251.21 438.47 199.96 466.7L198.21 465.53Z" fill="#E85B81"/>
<path d="M199.38 45.5205L198.21 465.521C154.28 442.051 110.55 414.711 82.39 372.511C27.02 289.561 48.04 186.191 43.78 91.7405C99.15 90.2005 151.89 73.0305 199.38 45.5305V45.5205Z" fill="#E85B81"/>
<path d="M219.1 270.3L215.4 272.86C190.96 262.75 165.77 266.92 141.46 274.99C148.8 279.06 157.89 280.77 166.2 281.96C183.14 284.37 200.58 284.38 217.67 284.23C220.19 285.03 222.84 284.23 225.35 284.23C227.23 284.23 228.83 284.32 230.75 284.23C232.26 284.16 233.79 284.28 235.3 284.23C238.03 284.7 242.66 284.11 245.54 283.95C250.34 285.33 264.96 284.35 271.56 285.09C282.66 286.34 313.33 293.57 319.19 303.72C319.97 305.08 319.4 305.03 319.47 306.14C318.69 307.22 314.35 310.14 314.07 311.12C313.74 312.24 314.61 317.66 313.64 318.09H300.27C299.52 317.79 300.92 314.1 300.98 313.11C301.47 304.78 297.6 296.09 289.75 292.49C272.98 284.81 255.97 300.45 261.6 317.8H150.13C154.06 307.81 148.53 295.24 138.33 291.64H159.66C158.86 309.27 195.43 309.63 206.58 310.12C222.35 310.81 238.17 310.88 253.93 311.83C253.43 306.62 253.67 301.84 257.06 297.61L256.78 297.04L161.66 295.9C160.75 293.94 160.49 294.07 160.52 291.63C194.67 292.83 228.85 293.23 263.04 293.05L268.3 289.78L161.38 288.22C161.55 287.64 161.81 286.84 161.81 286.23L160.53 288.22C152.03 288.93 141.36 286.75 133.09 287.94C132.8 287.98 129.76 288.98 129.82 289.22L131.81 290.5C117.03 290.07 107.61 303.8 112.19 317.66L105.93 318.09C101.93 316.64 97.44 312.92 95.98 308.85C95 306.12 93.65 295.9 96.26 294.2C97.49 293.4 104.88 291.64 105.08 289.79L97.12 283.11C97.27 282.34 97.3 281.23 97.4 280.41C97.68 280.15 97.87 279.83 98.25 279.7C98.82 279.5 101.33 279.58 102.23 279.42C142 272.13 179.09 254.8 219.11 270.32L219.1 270.3Z" fill="#E85B81"/>
<path d="M131.8 290.49C134.13 290.56 136.16 290.85 138.34 291.63C148.54 295.24 154.07 307.8 150.14 317.79H261.61C255.99 300.44 272.99 284.8 289.76 292.48C297.61 296.08 301.49 304.77 300.99 313.1C300.93 314.09 299.53 317.78 300.28 318.08H313.65C314.62 317.65 313.75 312.24 314.08 311.11C314.37 310.13 318.7 307.21 319.48 306.13C319.59 307.84 318.9 316.09 319.2 316.51C319.74 317.28 323.27 314.99 321.9 320.06C321.62 320.26 318.17 319.89 317.35 320.06C316.53 320.23 315.26 321.41 314.79 321.48C308.94 322.38 300.84 320.81 294.74 321.48C305.55 307.37 290.55 286.92 273.55 294.46C264.66 298.41 260.72 311.1 266.01 319.34C266.57 320.21 268.46 320.87 268 322.04C267.62 321.76 267.45 321.19 267 320.9H145.43C155.25 306.07 140.64 286.97 123.96 294.17C113.85 298.53 110.92 312.53 117.28 321.19C114.42 321.51 112.25 319.33 109.46 318.35C108.44 317.99 106.49 318.28 105.91 318.07L112.17 317.64C107.59 303.78 117.01 290.06 131.79 290.48L131.8 290.49Z" fill="black"/>
<path d="M102.23 279.39C101.33 279.55 98.82 279.48 98.25 279.67C97.82 278.84 97.36 274.75 97.11 274.41C96.31 273.32 94.41 274.43 93.56 274.27C91.22 273.83 89.6 266.47 91.29 265.74C92.12 265.38 108.68 266.97 109.35 267.59C109.68 267.89 110.86 271.73 110.63 272L99.97 273.85L102.24 279.4L102.23 279.39Z" fill="black"/>
<path d="M245.55 283.94C242.68 284.1 238.04 284.69 235.31 284.22C233.78 283.96 233.94 283.1 232.89 282.51C227.29 279.36 221.02 275.16 215.4 272.84L219.1 270.28C224.71 272.45 230.13 274.88 235.45 277.67C237.84 278.93 243.69 283.39 245.55 283.93V283.94Z" fill="black"/>
<path d="M96.26 294.18C96.22 290.47 96.41 286.73 97.11 283.09L105.07 289.77C104.88 291.62 97.48 293.38 96.25 294.18H96.26Z" fill="#EE2461"/>
<path d="M206.59 310.111C206.71 309.261 205.83 309.561 205.31 309.541C193.28 309.191 167.55 308.591 161.66 295.891L256.78 297.031L257.06 297.601C253.68 301.831 253.44 306.601 253.93 311.821C238.17 310.871 222.35 310.811 206.58 310.111H206.59Z" fill="#EE2461"/>
<path d="M160.52 291.62C160.54 290.08 160.98 289.55 161.37 288.21L268.29 289.77L263.03 293.04C228.84 293.22 194.66 292.82 160.51 291.62H160.52Z" fill="#EEAEC3"/>
<path d="M215.41 272.85C221.02 275.17 227.3 279.37 232.9 282.52C233.94 283.11 233.79 283.96 235.32 284.23C233.81 284.28 232.28 284.16 230.77 284.23C212.42 270.53 189.13 265.63 166.64 270.58L166.21 281.95C157.9 280.77 148.81 279.06 141.47 274.98C165.78 266.91 190.96 262.73 215.41 272.85Z" fill="black"/>
<path d="M160.52 288.21C160.6 289.21 159.7 290.79 159.67 291.62H138.34C136.15 290.85 134.13 290.55 131.8 290.48L129.81 289.2C129.75 288.96 132.79 287.96 133.08 287.92C141.35 286.74 152.02 288.91 160.52 288.2V288.21Z" fill="#EEAEC3"/>
<path d="M161.38 288.21C160.98 289.55 160.54 290.09 160.53 291.62C160.5 294.05 160.76 293.93 161.67 295.89C167.56 308.59 193.29 309.19 205.32 309.54C205.84 309.56 206.72 309.26 206.6 310.11C195.45 309.62 158.88 309.25 159.68 291.63C159.72 290.8 160.62 289.21 160.53 288.22L161.81 286.23C161.81 286.84 161.56 287.64 161.38 288.22V288.21Z" fill="#E98BA8"/>
<path d="M225.36 284.23C222.85 284.23 220.2 285.03 217.68 284.23C212.67 282.63 219.6 279.24 222.37 279.68C224.08 279.95 224.92 282.76 225.36 284.23Z" fill="#EE2461"/>
<path d="M145.45 320.91C143.61 322.54 142.22 324.17 140.05 325.46C132.05 330.21 130.22 327.14 122.99 326.03C121.36 324.72 118.51 322.85 117.3 321.2C110.95 312.55 113.88 298.55 123.98 294.18C140.66 286.98 155.27 306.08 145.45 320.91Z" fill="black"/>
<path d="M130.24 296.171C148.82 295.051 149.75 323.721 131.66 324.321C113.57 324.921 113.12 297.201 130.24 296.171Z" fill="#171717"/>
<path d="M131.94 297.881C135.98 297.951 139.44 300.531 141.75 303.711C140.43 303.991 133.64 308.471 133.08 308.401C131.56 308.211 131.73 299.501 131.94 297.881Z" fill="black"/>
<path d="M128.82 297.88C129.19 297.86 130.21 297.78 130.38 298.02C130.02 299.79 131.26 307.77 129.38 308.12C128.35 308.31 122.1 304.33 120.71 303.71C122.07 301.58 126.28 297.99 128.81 297.88H128.82Z" fill="black"/>
<path d="M129.67 311.53C130.06 311.53 130.15 311.7 130.38 311.96L130.24 322.62C126.72 322.38 123.4 320.38 121.28 317.64C122.27 316.85 129.15 311.52 129.67 311.53Z" fill="black"/>
<path d="M132.23 311.811L141.19 317.071C141.79 318.501 133.69 323.841 131.81 322.471L132.24 311.811H132.23Z" fill="black"/>
<path d="M141.9 304.99C143.86 304.85 144.03 314.69 141.9 316.08L133.51 310.53C133.19 309.28 141.01 306.36 141.9 304.98V304.99Z" fill="black"/>
<path d="M120 305.271L128.67 309.961C128.92 311.131 121.45 314.921 120.57 316.361C118.74 312.961 118.42 308.821 120 305.271Z" fill="black"/>
<path d="M130.81 308.691C132.48 308.201 132.35 310.441 131.38 310.681C130.16 310.991 129.63 309.041 130.81 308.691Z" fill="black"/>
<path d="M294.75 321.48C293.6 322.98 290.51 324.69 289.06 326.03C285.32 326.73 283.69 328.45 278.96 328.02C276.41 327.79 274.08 326.06 272.28 325.75C270.62 324.9 269.39 323.06 268.01 322.05C268.47 320.88 266.58 320.22 266.02 319.35C260.73 311.11 264.66 298.41 273.56 294.47C290.56 286.93 305.56 307.38 294.75 321.49V321.48Z" fill="black"/>
<path d="M279.25 296.461C298.31 294.431 299.65 323.901 281.24 324.331C263.83 324.741 262.83 298.211 279.25 296.461Z" fill="#171717"/>
<path d="M281.81 297.881C285.68 298.411 289.14 300.521 291.34 303.711C289.99 304.131 283.44 308.531 282.67 308.401C282.51 308.371 281.93 307.571 281.67 307.401L281.81 297.871V297.881Z" fill="black"/>
<path d="M281.81 311.812L291.05 317.072C289.04 320.012 285.28 322.752 281.67 322.472L281.81 311.812Z" fill="black"/>
<path d="M279.53 297.881C280.14 298.091 280.4 307.751 279.25 308.121C278.1 308.491 272.08 304.481 270.58 304.001C272.4 300.571 275.83 298.651 279.54 297.891L279.53 297.881Z" fill="black"/>
<path d="M279.53 311.531L280.24 322.481C278.44 323.671 270.64 319.001 271.14 317.361L279.53 311.531Z" fill="black"/>
<path d="M291.76 304.991C293.35 305.161 293.62 314.801 291.48 316.081L283.09 310.251L291.76 304.991Z" fill="black"/>
<path d="M269.86 305.271L278.53 310.251L270.43 316.361C268.28 315.151 268.62 305.701 269.86 305.271Z" fill="black"/>
<path d="M280.39 308.691C281.7 308.071 282.3 310.431 280.96 310.681C279.7 310.911 279.65 309.041 280.39 308.691Z" fill="black"/>
<path d="M92.8494 217H82.054L86.642 189.364H97.0057C99.8485 189.364 102.223 189.935 104.131 191.077C106.038 192.22 107.392 193.853 108.192 195.976C108.993 198.099 109.151 200.627 108.665 203.56C108.197 206.384 107.248 208.8 105.817 210.806C104.396 212.812 102.579 214.346 100.366 215.408C98.1617 216.469 95.6563 217 92.8494 217ZM90.6094 210.631H93.3352C94.7027 210.631 95.9216 210.392 96.9922 209.915C98.0717 209.43 98.9714 208.62 99.6911 207.487C100.42 206.344 100.946 204.783 101.27 202.804C101.576 200.933 101.567 199.489 101.243 198.472C100.919 197.447 100.303 196.736 99.3942 196.34C98.4856 195.935 97.3116 195.733 95.8722 195.733H93.0923L90.6094 210.631ZM109.923 217L114.511 189.364H126.44C128.491 189.364 130.223 189.737 131.635 190.484C133.048 191.23 134.064 192.305 134.685 193.709C135.306 195.112 135.454 196.795 135.131 198.756C134.807 200.735 134.091 202.404 132.985 203.762C131.887 205.112 130.488 206.137 128.788 206.839C127.097 207.531 125.199 207.878 123.094 207.878H115.969L116.94 202.048H122.554C123.435 202.048 124.209 201.94 124.875 201.724C125.541 201.5 126.08 201.149 126.494 200.672C126.908 200.186 127.178 199.547 127.304 198.756C127.43 197.964 127.367 197.321 127.115 196.826C126.863 196.322 126.445 195.953 125.86 195.719C125.275 195.477 124.551 195.355 123.687 195.355H121.042L117.426 217H109.923ZM128.221 204.315L133.025 217H124.875L120.233 204.315H128.221ZM147.768 189.364L143.18 217H135.677L140.265 189.364H147.768ZM158.881 189.364L161.309 208.849H161.525L170.432 189.364H178.906L165.196 217H154.94L150.406 189.364H158.881ZM176.98 217L181.568 189.364H201.485L200.46 195.409H188.045L187.289 200.159H198.679L197.653 206.205H186.264L185.508 210.955H197.869L196.843 217H176.98Z" fill="black"/>
<path d="M206.4 212.21L211.53 208.16C213.06 210.28 215.4 211.72 217.65 211.72C219.72 211.72 221.07 210.77 221.07 209.16C221.07 207.85 219.77 207.27 217.74 206.01L215.22 204.43C212.52 202.72 210.9 200.61 210.9 196.96C210.9 191.7 215.71 187.51 221.65 187.51C225.07 187.51 228.36 189.22 230.74 192.05L226.24 196.28C224.76 194.8 223.27 193.72 221.38 193.72C219.31 193.72 218.28 194.84 218.28 196.24C218.28 197.45 219.54 197.99 221.88 199.48L224.58 201.15C227.41 202.86 228.54 204.7 228.54 208.12C228.54 213.47 224.13 217.84 217.11 217.84C213.38 217.84 209.46 216.31 206.4 212.22V212.21Z" stroke="#231F20" stroke-width="2" stroke-miterlimit="10"/>
<path d="M246.41 206.48L240.29 206.67L238.34 210.98L246.41 210.72V206.48ZM246.41 206.48L246.53 210.71L246.72 217.29H254.28L251.49 188.04H242.85L227.55 217.29H235.47L238.33 210.98M246.4 206.48L246.26 201.81C246.17 199.02 246.08 196.41 246.08 193.44H245.9C244.73 196.32 243.74 199.02 242.48 201.81L240.28 206.67" stroke="#231F20" stroke-width="2" stroke-miterlimit="10"/>
<path d="M262.83 188.04H280.65L279.48 194.07H268.77L267.6 200.1H276.69L275.52 206.13H266.43L264.18 217.29H256.98L262.83 188.04Z" stroke="#231F20" stroke-width="2" stroke-miterlimit="10"/>
<path d="M286.05 188.04H303.87L302.7 194.07H291.99L291 199.2H300.09L298.92 205.23H289.83L288.57 211.26H299.64L298.47 217.29H280.2L286.05 188.04Z" stroke="#231F20" stroke-width="2" stroke-miterlimit="10"/>
<path d="M249.322 207.035L233.936 207.387L233.996 210.016L249.382 209.664L249.322 207.035Z" fill="#E85B81"/>
</g>
<defs>
<clipPath id="clip0_427_457">
<rect width="398.92" height="512" fill="white"/>
</clipPath>
</defs>
</svg>
